<svg id="Ebene_1" data-name="Ebene 1" xmlns="http://www.w3.org/2000/svg" viewBox="0 0 434.19 499.12"><defs><style>.cls-1{fill:#fff;}.cls-1,.cls-52{stroke:#1d1d1b;stroke-miterlimit:10;stroke-width:2px;}.cls-2{font-size:13px;}.cls-2,.cls-53,.cls-7{fill:#1d1d1b;font-family:MyriadPro-Regular, Myriad Pro;}.cls-3{letter-spacing:-0.01em;}.cls-4{letter-spacing:-0.01em;}.cls-5{letter-spacing:-0.01em;}.cls-6{letter-spacing:-0.01em;}.cls-7{font-size:7px;}.cls-8{letter-spacing:-0.01em;}.cls-9{letter-spacing:-0.01em;}.cls-10{letter-spacing:-0.01em;}.cls-11{letter-spacing:-0.01em;}.cls-12{letter-spacing:0em;}.cls-13{letter-spacing:0em;}.cls-14{letter-spacing:0em;}.cls-15{letter-spacing:-0.02em;}.cls-16{letter-spacing:-0.01em;}.cls-17{letter-spacing:-0.03em;}.cls-18{letter-spacing:0.01em;}.cls-19{letter-spacing:-0.03em;}.cls-20{letter-spacing:0em;}.cls-21{letter-spacing:0.02em;}.cls-22{letter-spacing:0.01em;}.cls-23{letter-spacing:0em;}.cls-24{letter-spacing:0.02em;}.cls-25{letter-spacing:-0.01em;}.cls-26{letter-spacing:0em;}.cls-27{letter-spacing:-0.01em;}.cls-28{letter-spacing:-0.01em;}.cls-29{letter-spacing:-0.03em;}.cls-30{letter-spacing:-0.01em;}.cls-31{letter-spacing:0.01em;}.cls-32{letter-spacing:0em;}.cls-33{letter-spacing:-0.03em;}.cls-34{letter-spacing:0.02em;}.cls-35{letter-spacing:-0.03em;}.cls-36{letter-spacing:-0.06em;}.cls-37{letter-spacing:-0.04em;}.cls-38{letter-spacing:-0.06em;}.cls-39{letter-spacing:0.03em;}.cls-40{letter-spacing:0.01em;}.cls-41{letter-spacing:-0.03em;}.cls-42{letter-spacing:0.01em;}.cls-43{letter-spacing:0.02em;}.cls-44{letter-spacing:0em;}.cls-45{letter-spacing:0.01em;}.cls-46{letter-spacing:-0.01em;}.cls-47{letter-spacing:-0.05em;}.cls-48{letter-spacing:-0.07em;}.cls-49{letter-spacing:0.01em;}.cls-50{letter-spacing:-0.03em;}.cls-51{letter-spacing:-0.02em;}.cls-52{fill:none;}.cls-53{font-size:10px;}</style></defs><title>uml_diagram</title><rect class="cls-1" x="1" y="13.72" width="94.65" height="109.52"/><rect class="cls-1" x="1" y="1" width="94.65" height="22.23"/><text class="cls-2" transform="translate(17.22 17.6)"><tspan class="cls-3">C</tspan><tspan x="7.4" y="0">on</tspan><tspan class="cls-4" x="21.75" y="0">f</tspan><tspan x="25.38" y="0">e</tspan><tspan class="cls-5" x="31.89" y="0">r</tspan><tspan x="36.01" y="0">en</tspan><tspan class="cls-6" x="49.74" y="0">c</tspan><tspan x="55.48" y="0">e</tspan></text><text class="cls-7" transform="translate(4.65 34.97)">+ <tspan class="cls-8" x="5.66" y="0">c</tspan><tspan x="8.75" y="0">on</tspan><tspan class="cls-9" x="16.48" y="0">f</tspan><tspan x="18.43" y="0">e</tspan><tspan class="cls-10" x="21.94" y="0">r</tspan><tspan x="24.16" y="0">en</tspan><tspan class="cls-8" x="31.55" y="0">c</tspan><tspan x="34.64" y="0">eID: </tspan><tspan class="cls-11" x="47.42" y="0">L</tspan><tspan x="50.62" y="0">ong</tspan><tspan x="0" y="8.4">+ name: </tspan><tspan class="cls-12" x="25.19" y="8.4">S</tspan><tspan x="28.62" y="8.4">t</tspan><tspan class="cls-13" x="30.94" y="8.4">r</tspan><tspan x="33.26" y="8.4">ing</tspan><tspan x="0" y="16.8">+ be</tspan><tspan class="cls-8" x="13.15" y="16.8">g</tspan><tspan x="17.02" y="16.8">in: </tspan><tspan class="cls-11" x="25.47" y="16.8">L</tspan><tspan x="28.68" y="16.8">ocalD</tspan><tspan class="cls-14" x="45.34" y="16.8">a</tspan><tspan class="cls-8" x="48.69" y="16.8">t</tspan><tspan x="50.97" y="16.8">e</tspan><tspan x="0" y="25.2">+ end: </tspan><tspan class="cls-11" x="19.93" y="25.2">L</tspan><tspan x="23.13" y="25.2">ocalD</tspan><tspan class="cls-14" x="39.8" y="25.2">a</tspan><tspan class="cls-8" x="43.15" y="25.2">t</tspan><tspan x="45.42" y="25.2">e</tspan><tspan x="0" y="33.6">+ su</tspan><tspan class="cls-15" x="12.28" y="33.6">b</tspan><tspan x="16.1" y="33.6">.</tspan><tspan class="cls-13" x="17.55" y="33.6">D</tspan><tspan x="22.24" y="33.6">ead</tspan><tspan class="cls-10" x="33.07" y="33.6">l</tspan><tspan x="34.65" y="33.6">.</tspan><tspan class="cls-16" x="36.1" y="33.6">L</tspan><tspan x="39.3" y="33.6">ong</tspan><tspan class="cls-17" x="50.94" y="33.6">P</tspan><tspan x="54.49" y="33.6">ape</tspan><tspan class="cls-18" x="65.35" y="33.6">r</tspan><tspan x="67.7" y="33.6" xml:space="preserve">:  L.</tspan><tspan class="cls-19" x="76.87" y="33.6">D</tspan><tspan class="cls-20" x="81.3" y="33.6">. </tspan><tspan x="0" y="42">+ su</tspan><tspan class="cls-15" x="12.28" y="42">b</tspan><tspan x="16.1" y="42">.</tspan><tspan class="cls-13" x="17.55" y="42">D</tspan><tspan x="22.24" y="42">ead</tspan><tspan class="cls-10" x="33.07" y="42">l</tspan><tspan x="34.65" y="42">.Sho</tspan><tspan class="cls-21" x="47.28" y="42">r</tspan><tspan x="49.73" y="42">t</tspan><tspan class="cls-17" x="52.05" y="42">P</tspan><tspan x="55.59" y="42">ape</tspan><tspan class="cls-22" x="66.46" y="42">r</tspan><tspan x="68.81" y="42" xml:space="preserve">:  L. </tspan><tspan class="cls-19" x="79.46" y="42">D</tspan><tspan x="83.89" y="42">.</tspan><tspan x="0" y="50.4">+ </tspan><tspan class="cls-10" x="5.66" y="50.4">r</tspan><tspan x="7.88" y="50.4">eviewNotific</tspan><tspan class="cls-23" x="44.25" y="50.4">a</tspan><tspan x="47.59" y="50.4">tion: L. </tspan><tspan class="cls-19" x="68.44" y="50.4">D</tspan><tspan x="72.87" y="50.4">.</tspan><tspan x="0" y="58.8">+ </tspan><tspan class="cls-8" x="5.66" y="58.8">c</tspan><tspan x="8.75" y="58.8">ou</tspan><tspan class="cls-14" x="16.45" y="58.8">n</tspan><tspan x="20.31" y="58.8">t</tspan><tspan class="cls-24" x="22.62" y="58.8">r</tspan><tspan x="25.09" y="58.8">y : </tspan><tspan class="cls-12" x="32.8" y="58.8">S</tspan><tspan x="36.23" y="58.8">t</tspan><tspan class="cls-13" x="38.55" y="58.8">r</tspan><tspan x="40.86" y="58.8">ing</tspan><tspan x="0" y="67.2">+ ci</tspan><tspan class="cls-18" x="10.43" y="67.2">t</tspan><tspan class="cls-21" x="12.81" y="67.2">y</tspan><tspan x="16.27" y="67.2">: </tspan><tspan class="cls-12" x="19.21" y="67.2">S</tspan><tspan x="22.64" y="67.2">t</tspan><tspan class="cls-13" x="24.95" y="67.2">r</tspan><tspan x="27.27" y="67.2">ing</tspan><tspan x="0" y="75.6">+ add</tspan><tspan class="cls-10" x="16.93" y="75.6">r</tspan><tspan x="19.14" y="75.6">ess: </tspan><tspan class="cls-12" x="31.13" y="75.6">S</tspan><tspan x="34.56" y="75.6">t</tspan><tspan class="cls-13" x="36.88" y="75.6">r</tspan><tspan x="39.19" y="75.6">ing</tspan></text><rect class="cls-1" x="163.49" y="1" width="94.65" height="104.82"/><rect class="cls-1" x="163.49" y="1" width="94.65" height="22.23"/><text class="cls-2" transform="translate(195.5 17.6)"><tspan class="cls-25">E</tspan><tspan class="cls-5" x="6.31" y="0">v</tspan><tspan x="12.43" y="0">e</tspan><tspan class="cls-26" x="18.94" y="0">n</tspan><tspan x="26.1" y="0">t</tspan></text><text class="cls-7" transform="translate(167.14 34.97)">+ e<tspan class="cls-10" x="9.16" y="0">v</tspan><tspan x="12.46" y="0">e</tspan><tspan class="cls-23" x="15.97" y="0">n</tspan><tspan x="19.82" y="0">tID: </tspan><tspan class="cls-16" x="31.41" y="0">L</tspan><tspan x="34.61" y="0">ong</tspan><tspan x="0" y="8.4">+ title: </tspan><tspan class="cls-12" x="20.02" y="8.4">S</tspan><tspan x="23.45" y="8.4">t</tspan><tspan class="cls-13" x="25.77" y="8.4">r</tspan><tspan x="28.08" y="8.4">ing</tspan><tspan x="0" y="16.8">+ c</tspan><tspan class="cls-14" x="8.79" y="16.8">a</tspan><tspan class="cls-8" x="12.14" y="16.8">t</tspan><tspan x="14.41" y="16.8">ego</tspan><tspan class="cls-24" x="25.68" y="16.8">r</tspan><tspan class="cls-21" x="28.14" y="16.8">y</tspan><tspan x="31.6" y="16.8">: </tspan><tspan class="cls-27" x="34.54" y="16.8">E</tspan><tspan class="cls-28" x="37.93" y="16.8">v</tspan><tspan x="41.23" y="16.8">e</tspan><tspan class="cls-14" x="44.73" y="16.8">n</tspan><tspan x="48.59" y="16.8">t</tspan><tspan class="cls-27" x="50.91" y="16.8">C</tspan><tspan class="cls-14" x="54.92" y="16.8">a</tspan><tspan class="cls-8" x="58.27" y="16.8">t</tspan><tspan x="60.54" y="16.8">ego</tspan><tspan class="cls-24" x="71.8" y="16.8">r</tspan><tspan x="74.27" y="16.8">y</tspan><tspan x="0" y="25.2">+ be</tspan><tspan class="cls-8" x="13.15" y="25.2">g</tspan><tspan x="17.02" y="25.2">in: </tspan><tspan class="cls-11" x="25.47" y="25.2">L</tspan><tspan x="28.68" y="25.2">ocalD</tspan><tspan class="cls-14" x="45.34" y="25.2">a</tspan><tspan class="cls-8" x="48.69" y="25.2">t</tspan><tspan class="cls-29" x="50.97" y="25.2">e</tspan><tspan class="cls-30" x="54.24" y="25.2">T</tspan><tspan x="57.64" y="25.2">ime</tspan><tspan x="0" y="33.6">+ end: </tspan><tspan class="cls-11" x="19.93" y="33.6">L</tspan><tspan x="23.13" y="33.6">ocalD</tspan><tspan class="cls-14" x="39.8" y="33.6">a</tspan><tspan class="cls-8" x="43.15" y="33.6">t</tspan><tspan class="cls-29" x="45.42" y="33.6">e</tspan><tspan class="cls-30" x="48.7" y="33.6">T</tspan><tspan x="52.09" y="33.6">ime</tspan><tspan x="0" y="42">+ pla</tspan><tspan class="cls-8" x="14.66" y="42">c</tspan><tspan x="17.76" y="42">e: </tspan><tspan class="cls-12" x="24.2" y="42">S</tspan><tspan x="27.63" y="42">t</tspan><tspan class="cls-13" x="29.94" y="42">r</tspan><tspan x="32.26" y="42">ing</tspan><tspan x="0" y="50.4">+ lin</tspan><tspan class="cls-31" x="12.83" y="50.4">k</tspan><tspan x="16.18" y="50.4">: </tspan><tspan class="cls-12" x="19.12" y="50.4">S</tspan><tspan x="22.55" y="50.4">t</tspan><tspan class="cls-32" x="24.86" y="50.4">r</tspan><tspan x="27.18" y="50.4">ing</tspan><tspan x="0" y="58.8">+ d</tspan><tspan class="cls-14" x="9.6" y="58.8">a</tspan><tspan class="cls-8" x="12.95" y="58.8">t</tspan><tspan x="15.22" y="58.8">e: </tspan><tspan class="cls-11" x="21.66" y="58.8">L</tspan><tspan x="24.87" y="58.8">ocalD</tspan><tspan class="cls-14" x="41.54" y="58.8">a</tspan><tspan class="cls-8" x="44.88" y="58.8">t</tspan><tspan x="47.16" y="58.8">e</tspan></text><rect class="cls-1" x="336.13" y="1" width="94.65" height="104.82"/><rect class="cls-1" x="336.13" y="1" width="94.65" height="22.23"/><text class="cls-2" transform="translate(357.28 17.6)"><tspan class="cls-25">E</tspan><tspan class="cls-5" x="6.31" y="0">v</tspan><tspan x="12.43" y="0">e</tspan><tspan class="cls-26" x="18.94" y="0">n</tspan><tspan x="26.1" y="0">t</tspan><tspan class="cls-33" x="30.41" y="0">P</tspan><tspan x="36.98" y="0">a</tspan><tspan class="cls-34" x="43.25" y="0">r</tspan><tspan x="47.81" y="0">t</tspan></text><text class="cls-7" transform="translate(339.78 34.97)">+ e<tspan class="cls-10" x="9.16" y="0">v</tspan><tspan x="12.46" y="0">e</tspan><tspan class="cls-23" x="15.97" y="0">n</tspan><tspan x="19.82" y="0">t</tspan><tspan class="cls-35" x="22.14" y="0">P</tspan><tspan x="25.68" y="0">a</tspan><tspan class="cls-21" x="29.06" y="0">r</tspan><tspan x="31.51" y="0">tID: </tspan><tspan class="cls-11" x="43.1" y="0">L</tspan><tspan x="46.3" y="0">ong</tspan><tspan x="0" y="8.4">+ title: </tspan><tspan class="cls-12" x="20.02" y="8.4">S</tspan><tspan x="23.45" y="8.4">t</tspan><tspan class="cls-13" x="25.77" y="8.4">r</tspan><tspan x="28.08" y="8.4">ing</tspan><tspan x="0" y="16.8">+ c</tspan><tspan class="cls-14" x="8.79" y="16.8">a</tspan><tspan class="cls-8" x="12.14" y="16.8">t</tspan><tspan x="14.41" y="16.8">ego</tspan><tspan class="cls-24" x="25.68" y="16.8">r</tspan><tspan class="cls-21" x="28.14" y="16.8">y</tspan><tspan x="31.6" y="16.8">: </tspan><tspan class="cls-27" x="34.54" y="16.8">E</tspan><tspan class="cls-28" x="37.93" y="16.8">v</tspan><tspan x="41.23" y="16.8">e</tspan><tspan class="cls-14" x="44.73" y="16.8">n</tspan><tspan x="48.59" y="16.8">t</tspan><tspan class="cls-27" x="50.91" y="16.8">C</tspan><tspan class="cls-14" x="54.92" y="16.8">a</tspan><tspan class="cls-8" x="58.27" y="16.8">t</tspan><tspan x="60.54" y="16.8">ego</tspan><tspan class="cls-24" x="71.8" y="16.8">r</tspan><tspan x="74.27" y="16.8">y</tspan><tspan x="0" y="25.2">+ be</tspan><tspan class="cls-8" x="13.15" y="25.2">g</tspan><tspan x="17.02" y="25.2">in: </tspan><tspan class="cls-11" x="25.47" y="25.2">L</tspan><tspan x="28.68" y="25.2">ocalD</tspan><tspan class="cls-14" x="45.34" y="25.2">a</tspan><tspan class="cls-8" x="48.69" y="25.2">t</tspan><tspan class="cls-29" x="50.97" y="25.2">e</tspan><tspan class="cls-30" x="54.24" y="25.2">T</tspan><tspan x="57.64" y="25.2">ime</tspan><tspan x="0" y="33.6">+ end: </tspan><tspan class="cls-11" x="19.93" y="33.6">L</tspan><tspan x="23.13" y="33.6">ocalD</tspan><tspan class="cls-14" x="39.8" y="33.6">a</tspan><tspan class="cls-8" x="43.15" y="33.6">t</tspan><tspan class="cls-29" x="45.42" y="33.6">e</tspan><tspan class="cls-30" x="48.7" y="33.6">T</tspan><tspan x="52.09" y="33.6">ime</tspan><tspan x="0" y="42">+ pla</tspan><tspan class="cls-8" x="14.66" y="42">c</tspan><tspan x="17.76" y="42">e: </tspan><tspan class="cls-12" x="24.2" y="42">S</tspan><tspan x="27.63" y="42">t</tspan><tspan class="cls-13" x="29.94" y="42">r</tspan><tspan x="32.26" y="42">ing</tspan></text><rect class="cls-1" x="165.9" y="397.87" width="94.65" height="59.62"/><rect class="cls-1" x="165.9" y="397.87" width="94.65" height="22.23"/><text class="cls-2" transform="translate(203.53 414.47)"><tspan class="cls-36">T</tspan><tspan x="5.63" y="0">ag</tspan></text><text class="cls-7" transform="translate(169.55 431.85)">+ tagID: <tspan class="cls-11" x="24.53" y="0">L</tspan><tspan x="27.73" y="0">ong</tspan><tspan x="0" y="8.4">+ name: </tspan><tspan class="cls-12" x="25.19" y="8.4">S</tspan><tspan x="28.62" y="8.4">t</tspan><tspan class="cls-13" x="30.94" y="8.4">r</tspan><tspan x="33.26" y="8.4">ing</tspan><tspan x="0" y="16.8">+ c</tspan><tspan class="cls-14" x="8.79" y="16.8">a</tspan><tspan class="cls-8" x="12.14" y="16.8">t</tspan><tspan x="14.41" y="16.8">ego</tspan><tspan class="cls-24" x="25.68" y="16.8">r</tspan><tspan class="cls-21" x="28.14" y="16.8">y</tspan><tspan x="31.6" y="16.8">:</tspan><tspan class="cls-37" x="33.05" y="16.8"> </tspan><tspan class="cls-38" x="34.25" y="16.8">T</tspan><tspan x="37.28" y="16.8">ag</tspan><tspan class="cls-27" x="44.57" y="16.8">C</tspan><tspan class="cls-23" x="48.58" y="16.8">a</tspan><tspan class="cls-8" x="51.92" y="16.8">t</tspan><tspan x="54.2" y="16.8">ego</tspan><tspan class="cls-39" x="65.46" y="16.8">r</tspan><tspan x="67.93" y="16.8">y</tspan></text><rect class="cls-1" x="338.54" y="397.87" width="94.65" height="59.62"/><rect class="cls-1" x="338.54" y="397.87" width="94.65" height="22.23"/><text class="cls-2" transform="translate(357.7 414.47)"><tspan class="cls-40">I</tspan><tspan x="3.24" y="0">nstitution</tspan></text><text class="cls-7" transform="translate(342.19 431.85)">+ institutionID: <tspan class="cls-11" x="45.03" y="0">L</tspan><tspan x="48.24" y="0">ong</tspan><tspan x="0" y="8.4">+ name: </tspan><tspan class="cls-12" x="25.19" y="8.4">S</tspan><tspan x="28.62" y="8.4">t</tspan><tspan class="cls-13" x="30.94" y="8.4">r</tspan><tspan x="33.26" y="8.4">ing</tspan></text><rect class="cls-1" x="163.49" y="180.57" width="94.65" height="181.44"/><rect class="cls-1" x="163.49" y="180.57" width="94.65" height="22.23"/><text class="cls-2" transform="translate(195.2 197.16)"><tspan class="cls-41">P</tspan><tspan x="6.58" y="0">aper</tspan></text><text class="cls-7" transform="translate(167.14 214.54)">+ paperID: <tspan class="cls-11" x="32.06" y="0">L</tspan><tspan x="35.26" y="0">ong</tspan><tspan x="0" y="8.4">+ title: </tspan><tspan class="cls-12" x="20.02" y="8.4">S</tspan><tspan x="23.45" y="8.4">t</tspan><tspan class="cls-13" x="25.77" y="8.4">r</tspan><tspan x="28.08" y="8.4">ing</tspan><tspan x="0" y="16.8">+ </tspan><tspan class="cls-10" x="5.66" y="16.8">r</tspan><tspan x="7.88" y="16.8">eleaseD</tspan><tspan class="cls-23" x="30.86" y="16.8">a</tspan><tspan class="cls-8" x="34.2" y="16.8">t</tspan><tspan x="36.48" y="16.8">e: </tspan><tspan class="cls-16" x="42.92" y="16.8">L</tspan><tspan x="46.12" y="16.8">ocalD</tspan><tspan class="cls-14" x="62.79" y="16.8">a</tspan><tspan class="cls-8" x="66.13" y="16.8">t</tspan><tspan x="68.41" y="16.8">e</tspan><tspan x="0" y="25.2">+ </tspan><tspan class="cls-10" x="5.66" y="25.2">r</tspan><tspan x="7.88" y="25.2">emo</tspan><tspan class="cls-8" x="21.06" y="25.2">t</tspan><tspan x="23.34" y="25.2">eLin</tspan><tspan class="cls-31" x="35.67" y="25.2">k</tspan><tspan x="39.02" y="25.2">: </tspan><tspan class="cls-12" x="41.96" y="25.2">S</tspan><tspan x="45.39" y="25.2">t</tspan><tspan class="cls-13" x="47.7" y="25.2">r</tspan><tspan x="50.02" y="25.2">ing</tspan><tspan x="0" y="33.6">+ localLin</tspan><tspan class="cls-31" x="28.14" y="33.6">k</tspan><tspan x="31.49" y="33.6">: </tspan><tspan class="cls-12" x="34.42" y="33.6">S</tspan><tspan x="37.85" y="33.6">t</tspan><tspan class="cls-32" x="40.17" y="33.6">r</tspan><tspan x="42.49" y="33.6">ing</tspan><tspan x="0" y="42">+ sema</tspan><tspan class="cls-14" x="21.15" y="42">n</tspan><tspan x="25" y="42">tic</tspan><tspan class="cls-42" x="32.09" y="42">S</tspan><tspan x="35.59" y="42">cholarID: </tspan><tspan class="cls-12" x="63.03" y="42">S</tspan><tspan x="66.46" y="42">t</tspan><tspan class="cls-13" x="68.78" y="42">r</tspan><tspan x="71.1" y="42">ing</tspan><tspan x="0" y="50.4">+ amou</tspan><tspan class="cls-14" x="22.57" y="50.4">n</tspan><tspan x="26.42" y="50.4">t</tspan><tspan class="cls-43" x="28.74" y="50.4">O</tspan><tspan x="33.68" y="50.4">f</tspan><tspan class="cls-12" x="35.72" y="50.4">C</tspan><tspan x="39.76" y="50.4">it</tspan><tspan class="cls-14" x="43.71" y="50.4">a</tspan><tspan x="47.06" y="50.4">tions: </tspan><tspan class="cls-11" x="64.45" y="50.4">L</tspan><tspan x="67.65" y="50.4">ong</tspan><tspan x="0" y="58.8">+ paper</tspan><tspan class="cls-12" x="22.79" y="58.8">A</tspan><tspan x="27.05" y="58.8">bst</tspan><tspan class="cls-44" x="36.13" y="58.8">r</tspan><tspan x="38.38" y="58.8">a</tspan><tspan class="cls-45" x="41.75" y="58.8">c</tspan><tspan x="44.98" y="58.8">t: </tspan><tspan class="cls-12" x="50.23" y="58.8">S</tspan><tspan x="53.66" y="58.8">t</tspan><tspan class="cls-13" x="55.98" y="58.8">r</tspan><tspan x="58.3" y="58.8">ing</tspan><tspan x="0" y="67.2">+ paper</tspan><tspan class="cls-46" x="22.79" y="67.2">P</tspan><tspan x="26.48" y="67.2">lai</tspan><tspan class="cls-47" x="33.14" y="67.2">n</tspan><tspan class="cls-48" x="36.68" y="67.2">T</tspan><tspan class="cls-12" x="39.66" y="67.2">e</tspan><tspan class="cls-45" x="43.15" y="67.2">x</tspan><tspan x="46.48" y="67.2">t: </tspan><tspan class="cls-12" x="51.73" y="67.2">S</tspan><tspan x="55.16" y="67.2">t</tspan><tspan class="cls-32" x="57.48" y="67.2">r</tspan><tspan x="59.79" y="67.2">ing</tspan><tspan x="0" y="75.6">+ i</tspan><tspan class="cls-14" x="7.29" y="75.6">n</tspan><tspan x="11.15" y="75.6">t</tspan><tspan class="cls-28" x="13.47" y="75.6">r</tspan><tspan x="15.69" y="75.6">odu</tspan><tspan class="cls-49" x="27.33" y="75.6">c</tspan><tspan x="30.56" y="75.6">tion: </tspan><tspan class="cls-12" x="45.18" y="75.6">S</tspan><tspan x="48.61" y="75.6">t</tspan><tspan class="cls-13" x="50.92" y="75.6">r</tspan><tspan x="53.24" y="75.6">ing</tspan><tspan x="0" y="84">+ </tspan><tspan class="cls-10" x="5.66" y="84">r</tspan><tspan x="7.88" y="84">el</tspan><tspan class="cls-23" x="13.03" y="84">a</tspan><tspan class="cls-8" x="16.38" y="84">t</tspan><tspan x="18.65" y="84">ed</tspan><tspan class="cls-50" x="26.11" y="84">W</tspan><tspan x="31.8" y="84">o</tspan><tspan class="cls-13" x="35.64" y="84">r</tspan><tspan class="cls-31" x="37.96" y="84">k</tspan><tspan x="41.31" y="84">: </tspan><tspan class="cls-12" x="44.25" y="84">S</tspan><tspan x="47.68" y="84">t</tspan><tspan class="cls-32" x="49.99" y="84">r</tspan><tspan x="52.31" y="84">ing</tspan><tspan x="0" y="92.4">+ </tspan><tspan class="cls-10" x="5.66" y="92.4">r</tspan><tspan x="7.88" y="92.4">esult: </tspan><tspan class="cls-12" x="24.91" y="92.4">S</tspan><tspan x="28.34" y="92.4">t</tspan><tspan class="cls-13" x="30.66" y="92.4">r</tspan><tspan x="32.98" y="92.4">ing</tspan><tspan x="0" y="100.8">+ discussion: </tspan><tspan class="cls-12" x="38.85" y="100.8">S</tspan><tspan x="42.28" y="100.8">t</tspan><tspan class="cls-13" x="44.6" y="100.8">r</tspan><tspan x="46.91" y="100.8">ing</tspan><tspan x="0" y="109.2">+ </tspan><tspan class="cls-8" x="5.66" y="109.2">c</tspan><tspan x="8.75" y="109.2">onclusion: </tspan><tspan class="cls-12" x="40.19" y="109.2">S</tspan><tspan x="43.62" y="109.2">t</tspan><tspan class="cls-13" x="45.94" y="109.2">r</tspan><tspan x="48.26" y="109.2">ing</tspan><tspan x="0" y="117.6">+ d</tspan><tspan class="cls-14" x="9.6" y="117.6">a</tspan><tspan x="12.95" y="117.6">taset: </tspan><tspan class="cls-12" x="30.17" y="117.6">S</tspan><tspan x="33.6" y="117.6">t</tspan><tspan class="cls-13" x="35.92" y="117.6">r</tspan><tspan x="38.23" y="117.6">ing</tspan><tspan x="0" y="126">+ se</tspan><tspan class="cls-45" x="11.93" y="126">c</tspan><tspan x="15.16" y="126">tionNames: </tspan><tspan class="cls-12" x="49.87" y="126">S</tspan><tspan x="53.3" y="126">t</tspan><tspan class="cls-32" x="55.62" y="126">r</tspan><tspan x="57.94" y="126">ing </tspan></text><rect class="cls-1" x="335.9" y="180.57" width="94.65" height="104.82"/><rect class="cls-1" x="335.9" y="180.57" width="94.65" height="22.23"/><text class="cls-2" transform="translate(364.69 197.16)"><tspan class="cls-51">P</tspan><tspan x="6.59" y="0">erson</tspan></text><text class="cls-7" transform="translate(339.55 214.54)">+ personID: <tspan class="cls-11" x="35.2" y="0">L</tspan><tspan x="38.41" y="0">ong</tspan><tspan x="0" y="8.4">+ p</tspan><tspan class="cls-10" x="9.64" y="8.4">r</tspan><tspan x="11.86" y="8.4">efix: </tspan><tspan class="cls-12" x="25.2" y="8.4">S</tspan><tspan x="28.63" y="8.4">t</tspan><tspan class="cls-13" x="30.95" y="8.4">r</tspan><tspan x="33.26" y="8.4">ing</tspan><tspan x="0" y="16.8">+ fullName: </tspan><tspan class="cls-12" x="35.12" y="16.8">S</tspan><tspan x="38.55" y="16.8">t</tspan><tspan class="cls-13" x="40.86" y="16.8">r</tspan><tspan x="43.18" y="16.8">ing</tspan><tspan x="0" y="25.2">+ firstName: </tspan><tspan class="cls-12" x="36.95" y="25.2">S</tspan><tspan x="40.38" y="25.2">t</tspan><tspan class="cls-13" x="42.7" y="25.2">r</tspan><tspan x="45.02" y="25.2">ing</tspan><tspan x="0" y="33.6">+ lastName: </tspan><tspan class="cls-12" x="36.03" y="33.6">S</tspan><tspan x="39.46" y="33.6">t</tspan><tspan class="cls-13" x="41.77" y="33.6">r</tspan><tspan x="44.09" y="33.6">ing</tspan><tspan x="0" y="42">+ bi</tspan><tspan class="cls-21" x="11.28" y="42">r</tspan><tspan x="13.73" y="42">th: </tspan><tspan class="cls-12" x="22.87" y="42">S</tspan><tspan x="26.3" y="42">t</tspan><tspan class="cls-13" x="28.62" y="42">r</tspan><tspan x="30.93" y="42">ing</tspan><tspan x="0" y="50.4">+ obit: </tspan><tspan class="cls-12" x="20.37" y="50.4">S</tspan><tspan x="23.8" y="50.4">t</tspan><tspan class="cls-13" x="26.12" y="50.4">r</tspan><tspan x="28.43" y="50.4">ing</tspan><tspan x="0" y="58.8">+ seme</tspan><tspan class="cls-14" x="21.28" y="58.8">n</tspan><tspan x="25.14" y="58.8">tic</tspan><tspan class="cls-42" x="32.23" y="58.8">S</tspan><tspan x="35.72" y="58.8">cholarID: </tspan><tspan class="cls-12" x="63.17" y="58.8">S</tspan><tspan x="66.6" y="58.8">t</tspan><tspan class="cls-13" x="68.91" y="58.8">r</tspan><tspan x="71.23" y="58.8">ing</tspan></text><line class="cls-52" x1="95.65" y1="40.24" x2="162.51" y2="40.24"/><line class="cls-52" x1="259.08" y1="40.24" x2="335.9" y2="40.24"/><line class="cls-52" x1="297.13" y1="40.24" x2="297.13" y2="40.24"/><line class="cls-52" x1="208.62" y1="180.57" x2="208.62" y2="105.82"/><line class="cls-52" x1="382.07" y1="181.24" x2="382.07" y2="104.95"/><line class="cls-52" x1="384.93" y1="397.87" x2="384.93" y2="285.39"/><line class="cls-52" x1="213.23" y1="396.07" x2="213.23" y2="362"/><line class="cls-52" x1="335.9" y1="237.24" x2="259.01" y2="237.24"/><polyline class="cls-52" points="257.92 74.12 297.13 74.12 297.13 196.45 335.9 196.45"/><polyline class="cls-52" points="235.59 180.57 235.59 143.09 355.59 143.19 355.59 105.82"/><text class="cls-2" transform="translate(151.12 39.96)">*</text><text class="cls-2" transform="translate(324.55 236.43)">*</text><text class="cls-2" transform="translate(264.81 236.43)">*</text><text class="cls-2" transform="translate(200.75 398.92)">*</text><text class="cls-2" transform="translate(200.75 375.99)">*</text><text class="cls-2" transform="translate(194.25 180.29)">*</text><text class="cls-2" transform="translate(266.09 72.95)">*</text><text class="cls-2" transform="translate(324.55 39.96)">*</text><text x="-58.07" y="-110.76"></text><text class="cls-2" transform="translate(392.83 299.37)">*</text><text class="cls-2" transform="translate(244.06 180.29)">*</text><text class="cls-53" transform="translate(391.67 178.16)">1</text><text class="cls-53" transform="translate(392.96 391.13)">1</text><text class="cls-53" transform="translate(344.01 117.86)">1</text><text class="cls-53" transform="translate(194.39 118.74)">1</text><text class="cls-53" transform="translate(266.22 34.14)">1</text><text class="cls-53" transform="translate(103.87 36.77)">1</text><text class="cls-2" transform="translate(391.54 120.46)">*</text></svg>